<?xml version="1.0" encoding="utf-8"?>
<!-- Generator: Adobe Illustrator 16.0.0, SVG Export Plug-In . SVG Version: 6.00 Build 0)  -->
<!DOCTYPE svg PUBLIC "-//W3C//DTD SVG 1.1//EN" "http://www.w3.org/Graphics/SVG/1.1/DTD/svg11.dtd">
<svg version="1.1" id="Layer_1" xmlns="http://www.w3.org/2000/svg" xmlns:xlink="http://www.w3.org/1999/xlink" x="0px" y="0px"
	 width="184px" height="117.449px" viewBox="0 0 184 117.449" enable-background="new 0 0 184 117.449" xml:space="preserve">
<g>
	<path d="M33.383,115.889c0.574-0.877,0.691-2.168,0.691-3.238v-0.449H35.6v3.688H33.383L33.383,115.889z M32.176,115.889v1.561
		h0.635v-0.967h3.396v0.967h0.614v-1.561h-0.538v-4.281h-2.852v1.002c0,1.063-0.09,2.326-0.766,3.279H32.176L32.176,115.889z
		 M38.514,114.01c0,1.438,1.098,2.555,2.506,2.555c1.409,0,2.5-1.117,2.5-2.555c0-1.4-1.091-2.484-2.5-2.484
		C39.612,111.525,38.514,112.609,38.514,114.01L38.514,114.01z M39.219,114.01c0-1.057,0.801-1.863,1.801-1.863
		c0.994,0,1.795,0.807,1.795,1.863c0,1.092-0.801,1.926-1.795,1.926C40.02,115.936,39.219,115.102,39.219,114.01L39.219,114.01z
		 M45.454,116.482h0.684l0.234-3.072c0.028-0.297,0.015-0.732,0.015-0.732H46.4c0,0,0.151,0.469,0.263,0.732l0.966,2.195h0.607
		l0.974-2.195c0.11-0.27,0.262-0.719,0.262-0.719h0.014c0,0-0.014,0.422,0.015,0.719l0.234,3.072h0.677l-0.394-4.875h-0.711
		l-1.126,2.639c-0.109,0.27-0.241,0.656-0.241,0.656h-0.014c0,0-0.124-0.387-0.234-0.656l-1.126-2.639h-0.711L45.454,116.482
		L45.454,116.482z M52.118,116.482h0.697l0.49-1.4h1.836l0.49,1.4h0.703l-1.746-4.875h-0.725L52.118,116.482L52.118,116.482z
		 M53.485,114.516l0.545-1.541c0.082-0.254,0.186-0.695,0.186-0.695h0.014c0,0,0.111,0.441,0.193,0.695l0.539,1.541H53.485
		L53.485,114.516z M58.221,116.482h5.646v-4.875h-0.676v4.281h-1.803v-4.281h-0.683v4.281h-1.802v-4.281h-0.684V116.482
		L58.221,116.482z M66.299,116.482h0.684v-2.141h2.533v2.141h0.678v-4.875h-0.678v2.141h-2.533v-2.141h-0.684V116.482
		L66.299,116.482z M72.135,116.482h0.766l1.146-1.941h0.896v1.941h0.684v-4.875h-1.504c-0.471,0-0.705,0.043-0.912,0.131
		c-0.449,0.201-0.766,0.643-0.766,1.285c0,0.648,0.297,1.174,0.925,1.4v0.016c0,0-0.049,0.068-0.146,0.227L72.135,116.482
		L72.135,116.482z M74.005,113.963c-0.531,0-0.862-0.346-0.862-0.912c0-0.324,0.145-0.6,0.393-0.738
		c0.132-0.068,0.297-0.111,0.636-0.111h0.772v1.762H74.005L74.005,113.963z M77.569,116.482h0.767l1.146-1.941h0.897v1.941h0.684
		v-4.875h-1.505c-0.469,0-0.704,0.043-0.911,0.131c-0.448,0.201-0.767,0.643-0.767,1.285c0,0.648,0.297,1.174,0.926,1.4v0.016
		c0,0-0.049,0.068-0.146,0.227L77.569,116.482L77.569,116.482z M79.44,113.963c-0.531,0-0.863-0.346-0.863-0.912
		c0-0.324,0.145-0.6,0.394-0.738c0.132-0.068,0.297-0.111,0.636-0.111h0.772v1.762H79.44L79.44,113.963z M85.212,116.482h0.684
		v-2.23h0.726l1.297,2.23h0.78l-1.512-2.547v-0.014l1.422-2.314h-0.753l-1.234,2.051h-0.726v-2.051h-0.684V116.482L85.212,116.482z
		 M90.165,114.01c0,1.438,1.098,2.555,2.505,2.555c1.408,0,2.499-1.117,2.499-2.555c0-1.4-1.091-2.484-2.499-2.484
		C91.262,111.525,90.165,112.609,90.165,114.01L90.165,114.01z M90.868,114.01c0-1.057,0.801-1.863,1.802-1.863
		c0.994,0,1.795,0.807,1.795,1.863c0,1.092-0.801,1.926-1.795,1.926C91.668,115.936,90.868,115.102,90.868,114.01L90.868,114.01z
		 M97.29,116.482h0.683v-2.141h2.534v2.141h0.677v-4.875h-0.677v2.141h-2.534v-2.141H97.29V116.482L97.29,116.482z M104.215,115.889
		c0.572-0.877,0.689-2.168,0.689-3.238v-0.449h1.526v3.688H104.215L104.215,115.889z M103.007,115.889v1.561h0.635v-0.967h3.396
		v0.967h0.614v-1.561h-0.539v-4.281h-2.851v1.002c0,1.063-0.09,2.326-0.767,3.279H103.007L103.007,115.889z M109.718,116.482h0.67
		l2.175-3.162c0.172-0.27,0.407-0.711,0.407-0.711h0.014c0,0-0.042,0.436-0.042,0.711v3.162h0.677v-4.875h-0.67l-2.16,3.156
		c-0.173,0.262-0.415,0.717-0.415,0.717h-0.013c0,0,0.041-0.436,0.041-0.711v-3.162h-0.684V116.482L109.718,116.482z
		 M117.19,116.482h0.676v-4.281h1.678v-0.594h-4.031v0.594h1.678V116.482L117.19,116.482z M121.436,116.482h2.955v-0.594h-2.271
		v-1.566h1.746v-0.594h-1.746v-1.527h2.154v-0.594h-2.838V116.482L121.436,116.482z M126.471,116.482h0.684v-1.803h1.104
		c0.891,0,1.527-0.621,1.527-1.547c0-0.924-0.637-1.525-1.527-1.525h-1.787V116.482L126.471,116.482z M127.155,114.086v-1.885h1
		c0.574,0,0.939,0.354,0.939,0.932c0,0.588-0.365,0.953-0.945,0.953H127.155L127.155,114.086z M131.485,114.018
		c0,1.43,0.986,2.547,2.498,2.547c0.863,0,1.471-0.359,1.885-0.771l-0.365-0.492c-0.395,0.395-0.953,0.635-1.498,0.635
		c-1.133,0-1.816-0.891-1.816-1.926c0-1.027,0.67-1.863,1.803-1.863c0.504,0,1.049,0.215,1.408,0.531l0.346-0.51
		c-0.471-0.449-1.154-0.643-1.781-0.643C132.512,111.525,131.485,112.604,131.485,114.018L131.485,114.018z M137.872,116.482h0.684
		v-2.23h0.725l1.297,2.23h0.781l-1.512-2.547v-0.014l1.422-2.314h-0.754l-1.234,2.051h-0.725v-2.051h-0.684V116.482L137.872,116.482
		z M142.711,116.482h0.699l0.488-1.4h1.835l0.49,1.4h0.705l-1.746-4.875h-0.725L142.711,116.482L142.711,116.482z M144.079,114.516
		l0.544-1.541c0.084-0.254,0.188-0.695,0.188-0.695h0.014c0,0,0.111,0.441,0.193,0.695l0.537,1.541H144.079L144.079,114.516z
		 M148.332,116.482h0.766l1.146-1.941h0.898v1.941h0.684v-4.875h-1.506c-0.469,0-0.703,0.043-0.91,0.131
		c-0.449,0.201-0.768,0.643-0.768,1.285c0,0.648,0.297,1.174,0.926,1.4v0.016c0,0-0.049,0.068-0.145,0.227L148.332,116.482
		L148.332,116.482z M150.203,113.963c-0.531,0-0.863-0.346-0.863-0.912c0-0.324,0.145-0.6,0.395-0.738
		c0.131-0.068,0.297-0.111,0.635-0.111h0.773v1.762H150.203L150.203,113.963z"/>
	<path fill="#818FB2" d="M91.994,57.633c0.233,0.529,0.059-0.018-0.077,0.238c-0.297-0.15-0.217,0.004-0.162-0.35
		C92.068,57.568,91.916,57.457,91.994,57.633L91.994,57.633z M84.796,9.998c-0.283-0.123-0.413-0.453-0.29-0.736
		c0.124-0.283,0.453-0.412,0.736-0.289c0.017,0.008,5.475,2.346,6.342,7.545c0.05,0.307-0.156,0.594-0.461,0.645
		s-0.594-0.154-0.645-0.459c-0.083-0.502-0.216-0.973-0.387-1.416c-0.897,0.641-1.392,1.695-1.375,2.787
		c0.027,1.949,1.504,3.096,3.494,2.973c1.874-0.117,3.001-1.609,2.964-3.398c-0.033-1.662-1.08-3.016-2.849-3.023
		c-0.309,0-0.559-0.252-0.557-0.561c0.001-0.309,0.252-0.559,0.561-0.557c2.399,0.01,3.916,1.84,3.962,4.119
		c0.065,3.268-1.024,5.762-4.044,7.127c2.256,0.373,9.61,1.855,9.61,4.684c0,0.951-0.698,1.723-1.648,2.371
		c2.709,1.025,4.71,2.318,4.63,3.574c-0.057,0.908-0.842,1.67-1.407,2.316c-2.604,2.977-4.366,5.994-4.851,9.996
		c-0.027,0.23-0.194,0.4-0.4,0.473c-3.811,1.367-7.459,1.551-11.318,0.275c-0.199-0.064-0.33-0.232-0.375-0.424
		c-1.141-4.844-3.779-9.475-7.179-13.092c-0.211-0.225-0.2-0.578,0.024-0.791c0.208-0.195,0.523-0.197,0.74-0.023
		c3.861,3.098,9.006,4.428,13.9,4.422c1.926-0.004,9.592-0.748,9.748-3.223c0.048-0.758-1.389-1.643-3.442-2.398
		c0.31,3.141-4.129,3.531-6.328,3.541c-2.968,0.012-11.812-1.137-11.812-4.666c0-1.037,0.828-1.688,2.186-2.027
		c0.073-1.377,1.282-2.203,3.035-2.543c0.855-0.166,1.853-0.217,2.904-0.16c1.04,0.057,2.139,0.221,3.207,0.482
		c2.546,0.621,4.936,1.873,6.118,3.549c0.71-0.451,1.146-1.047,1.146-1.652c0-2.334-10.033-3.916-11.893-3.916
		c-0.311,0-0.562-0.252-0.562-0.561c0-0.311,0.251-0.564,0.562-0.563c2.132,0.014,4.613-1.096,5.671-3.016
		c-0.566,0.361-1.421,0.73-2.237,0.781c-2.655,0.164-4.672-1.527-4.683-4.119c-0.005-1.516,0.727-2.953,2.013-3.781
		C87.963,11.357,84.807,10.004,84.796,9.998L84.796,9.998z M101.439,38.414c-2.303,0.846-5.121,1.244-7.553,1.24
		c-3.896-0.006-8.113-1.014-11.577-2.816c2.295,3.113,4.264,6.879,5.199,10.635c3.424,1.066,6.632,0.914,10.007-0.254
		C97.98,43.9,99.42,41.039,101.439,38.414L101.439,38.414z M99.13,32.428c-2.203,1.021-5.476,1.42-7.909,1.311
		c-2.16-0.098-5.842-0.658-6.718-2.873c-0.776,0.199-1.239,0.502-1.239,0.924c0,2.531,8.185,3.551,10.629,3.549
		C95.692,35.334,99.98,35.211,99.13,32.428L99.13,32.428z M97.574,32.002c-3.401-0.885-8.519-1.73-11.985-1.346
		C87.124,33.301,94.908,32.729,97.574,32.002L97.574,32.002z M98.481,31.275c-1.108-1.166-3.239-2.15-5.271-2.648
		c-1.003-0.244-2.029-0.398-3.002-0.451c-0.962-0.053-1.866-0.008-2.637,0.143c-1.079,0.211-1.917,0.617-2.124,1.236
		C89.271,29.121,94.847,30.195,98.481,31.275L98.481,31.275z M98.652,57.463l-0.303-0.162c0.109-0.203-0.106-0.1,0.292-0.193
		L98.652,57.463L98.652,57.463z M86.076,57.133c0.126,0.264,0.081,0.092,0,0.266c-0.243-0.166-0.066,0.084-0.101-0.166
		C85.931,56.896,85.876,57.297,86.076,57.133L86.076,57.133z M95.267,56.945c0.305,0.076,0.096-0.254,0.286,0.354
		C95.155,57.193,95.034,57.346,95.267,56.945L95.267,56.945z M100.746,55.994c0.26-0.146,0.155,0.041,0.196,0.061
		c-0.103,0.145,0.147,0.109-0.332,0.211C100.667,55.971,100.531,56.115,100.746,55.994L100.746,55.994z M78.743,54.715
		c0.107-0.047,0.149-0.293,0.533,0.205c-0.282,0.021-0.051,0.096-0.355-0.027C78.62,54.77,78.882,54.877,78.743,54.715
		L78.743,54.715z M104.808,54.141l0.21-0.043c0.012-0.029,0.046,0.029,0.07,0.043C104.928,54.236,104.959,54.246,104.808,54.141
		L104.808,54.141z M74.463,51.268c-0.072,0.305,0.262,0.117-0.34,0.27C74.223,51.16,74.114,51.086,74.463,51.268L74.463,51.268z
		 M110.982,50.508c-0.032-0.002-0.183-0.021-0.204-0.025l-0.158-0.076c0.175-0.191-0.02-0.123,0.277-0.148L110.982,50.508
		L110.982,50.508z M110.299,50.246c0.104,0.113,0.144,0.086,0,0.254C110.099,50.32,110.125,50.461,110.299,50.246L110.299,50.246z
		 M115.183,45.131c0.356,0.141,0.167-0.168,0.227,0.314C115.088,45.373,115.064,45.457,115.183,45.131L115.183,45.131z
		 M115.423,44.998c-0.225-0.031-0.135,0.012-0.305-0.213C115.535,44.662,115.458,44.584,115.423,44.998L115.423,44.998z
		 M117.582,42.619c0.046,0.369,0.099-0.072-0.14,0.105l0.038-0.283C117.644,42.617,117.545,42.332,117.582,42.619L117.582,42.619z
		 M65.848,41.502c-0.004-0.373,0.129-0.102,0.156-0.002C66.042,41.625,65.851,41.773,65.848,41.502L65.848,41.502z M118.818,39.426
		c0.255-0.104,0.17,0.061,0.176,0.064c-0.339,0.498-0.315,0.102-0.33,0.096C119.187,39.121,118.372,39.607,118.818,39.426
		L118.818,39.426z M119.887,37.111c-0.526,0.115,0.012,0.178-0.491,0.287c-0.007-0.012-0.306-0.25,0.19-0.572
		C119.844,36.938,119.708,36.848,119.887,37.111L119.887,37.111z M120.09,34.568c-0.004-0.4-0.051-0.326,0.334-0.447
		C120.167,34.654,120.545,34.316,120.09,34.568L120.09,34.568z M120.167,31.1c-0.379,0.043-0.124-0.063-0.187-0.131
		c0.126-0.104,0.102-0.391,0.386,0C120.258,31.076,120.419,31.07,120.167,31.1L120.167,31.1z M120.877,30.012
		c-0.126,0.213,0.008,0.135-0.237,0.186c-0.007-0.01-0.167-0.082-0.018-0.232C120.834,29.752,120.875,30.01,120.877,30.012
		L120.877,30.012z M63.292,25.213c0.366,0.023,0.172,0.006,0.334,0.107c-0.074,0.131,0.18,0.252-0.195,0.156
		C63.277,25.438,63.346,25.412,63.292,25.213L63.292,25.213z M63.479,25.008c-0.203-0.357,0.046-0.75,0.4-0.881
		C63.75,24.881,63.706,24.922,63.479,25.008L63.479,25.008z M64.142,21.922l-0.089,0.109c-0.254-0.443-0.031-0.234,0-0.32
		C64.178,21.898,64.114,21.623,64.142,21.922L64.142,21.922z M65.713,16.945c0.197-0.098-0.258-0.148,0.295-0.084l0.149,0.512
		c-0.069,0.037,0.104,0.225-0.243-0.002c-0.129,0.291-0.064,0.164-0.303,0.363L65.713,16.945L65.713,16.945z M66.544,16.051
		c0.055-0.318,0.036-0.27,0.286-0.467c0.001,0.004,0.17,0.012,0.027,0.283C66.67,16.221,66.838,15.988,66.544,16.051L66.544,16.051z
		 M67.213,14.611c-0.265-0.313-0.062-0.129,0-0.223c0.014,0.02,0.047,0.045,0.051,0.055L67.213,14.611L67.213,14.611z
		 M115.839,13.531c0.341,0.123,0.182-0.057,0.289,0.287C115.644,13.834,115.869,14.01,115.839,13.531L115.839,13.531z
		 M68.288,13.064c0.026-0.012,0.06-0.041,0.074-0.045l0.197,0.045C68.11,13.381,68.435,13.143,68.288,13.064L68.288,13.064z
		 M113.791,12.873c0.135-0.045-0.089-0.203,0.223,0l-0.163,0.045C113.842,12.895,113.812,12.887,113.791,12.873L113.791,12.873z
		 M113.299,9.904c-0.227,0.096-0.084,0.127-0.315,0c0.104-0.104-0.206-0.184,0.17-0.164C113.508,9.758,113.211,9.754,113.299,9.904
		L113.299,9.904z M112.484,9.617c0.182-0.129-0.257-0.059,0.204-0.102c0.418-0.039,0.057-0.014,0.182,0.102
		C112.519,9.82,112.683,9.729,112.484,9.617L112.484,9.617z M111.788,9.191c0.036,0.006,0.087,0.008,0.11,0.016l0.205,0.123
		C111.804,9.494,111.919,9.463,111.788,9.191L111.788,9.191z M111.788,9.191l-0.265,0.064c0.09-0.355-0.032-0.24,0.331-0.32
		L111.788,9.191L111.788,9.191z M111.094,9.074c-0.449-0.023-0.161,0.104-0.287-0.279C111.141,8.928,111.012,8.721,111.094,9.074
		L111.094,9.074z M108.635,7.889c0.206-0.422,0.272-0.135,0.349-0.371c0.013-0.035,0.049-0.023,0.07-0.039
		c0.075,0.283,0.106,0.119-0.064,0.348l-0.134,0.158L108.635,7.889L108.635,7.889z M110.022,7.209
		c-0.38,0.027-0.061,0.006-0.192-0.08c0.032-0.037,0.08-0.531,0.408,0C110.189,7.154,110.184,7.199,110.022,7.209L110.022,7.209z
		 M109.249,6.66l0.303,0.316l0.159,0.152c-0.075,0.191,0.169,0.115-0.126,0.166l-0.248-0.074l-0.01-0.111
		c-0.215,0.064-0.124-0.018-0.376,0.119l-0.01-0.275l-0.017-0.275l-0.301-0.123c0.337-0.189,0.262-0.041,0.563-0.109L109.249,6.66
		L109.249,6.66z M75.673,6.459c0.509-0.494,0.265-0.025,0.296,0C75.889,6.492,76.057,6.697,75.673,6.459L75.673,6.459z
		 M108.635,6.17c0.456-0.359,0.263-0.051,0.318,0c-0.098,0.063,0.004,0.049-0.179,0.061C108.269,6.266,108.954,6.328,108.635,6.17
		L108.635,6.17z M75.538,6.191c0.032-0.328-0.148-0.25,0.244-0.26C75.737,6.158,75.929,5.998,75.538,6.191L75.538,6.191z
		 M107.65,5.883c0.014-0.174-0.159-0.035,0.104-0.037l0.042,0.025C107.853,6.15,107.646,5.922,107.65,5.883L107.65,5.883z
		 M75.116,5.6c-0.059,0.348,0.034,0.303-0.305,0.359C74.87,5.52,74.8,5.688,75.116,5.6L75.116,5.6z M108.235,5.783
		c-0.458-0.15-0.589-0.25-0.858-0.541c0.296-0.068,0.356,0.01,0.547,0.145C108.231,5.605,108.098,5.408,108.235,5.783L108.235,5.783
		z M107.217,5.195c-0.12-0.066-0.174-0.094-0.27-0.174c-0.151-0.131-0.11-0.043-0.154-0.24c0.13,0.012,0.152-0.029,0.301,0.088
		C107.292,5.025,107.228,4.895,107.217,5.195L107.217,5.195z M106.056,4.67c0.051,0.307,0.029,0.158-0.065,0.313
		c-0.075-0.035-0.29,0.012-0.163-0.238C105.864,4.67,105.923,4.713,106.056,4.67L106.056,4.67z M76.883,5.104
		c-0.181-0.164-0.234-0.172-0.274-0.439c0.138,0.029,0.151-0.008,0.258,0.207c0.244-0.252,0.372-0.297,0.653-0.205L76.883,5.104
		L76.883,5.104z M105.489,4.02c0.381,0.102,0.475,0.189,0.789,0.252c0.119,0.236,0.065,0.006,0.074,0.344l-0.296,0.055l-0.016-0.082
		c-0.108-0.092-0.153-0.135-0.294-0.26C105.454,4.064,105.67,4.391,105.489,4.02L105.489,4.02z M78.881,4.031
		c-0.359-0.039-0.379-0.078-0.311-0.371c0.275-0.129-0.01-0.123,0.418-0.033L78.881,4.031L78.881,4.031z M101.395,1.979l0.354,0.107
		l0.044,0.236l-0.174,0.031l-0.433,0.004C101.274,1.928,101.112,2.143,101.395,1.979L101.395,1.979z M100.339,1.945
		c0.059,0.506,0.166-0.164-0.094,0.119c-0.2-0.273-0.089-0.143,0-0.289C100.368,1.906,100.311,1.703,100.339,1.945L100.339,1.945z
		 M97.374,1.336c-0.28-0.057-0.052,0.061-0.146-0.146l0.051-0.141c0.275,0.176,0.127,0.215,0.127,0.215
		C97.408,1.246,97.383,1.313,97.374,1.336L97.374,1.336z M99.001,1.34c-0.341-0.184-0.23-0.135-0.096-0.35
		C99.092,1.098,99.198,1.018,99.001,1.34L99.001,1.34z M87.918,1.154l-0.092-0.221c0.34-0.111-0.005-0.084,0.36-0.035
		C88.088,1.133,88.334,1.047,87.918,1.154L87.918,1.154z M92.204,0.615c0.088,0.113,0.169,0.082,0,0.291
		C92.052,0.727,92.055,0.885,92.204,0.615L92.204,0.615z M93.332,0.639c-0.184,0.311-0.208,0.342-0.379-0.074L93.332,0.639
		L93.332,0.639z M94.406,0.322c0.258,0.348,0.003,0.297,0,0.299C94.35,0.57,94.218,0.566,94.406,0.322L94.406,0.322z M87.928,0.566
		l-0.029-0.063C87.993,0.434,88.092,0.412,87.928,0.566L87.928,0.566z M88.141,0.52l0.041-0.236
		C88.246,0.402,88.299,0.367,88.141,0.52L88.141,0.52z M89.468,0.059l-0.138,0.158l-1.099,0.02l-1.681,0.213
		c0.396,0.332,0.221,0.059,0.305,0.359c-0.018,0.008-0.186,0.26-0.438-0.227l-0.414,0.064c-0.437-0.027-0.957,0.176-1.477,0.273
		l-0.069,0.16l-0.267,0.012l-0.733,0.121l-0.071,0.141h-0.307l0.032,0.125l0.007,0.061c0.265,0.137,0.178-0.033,0.254,0.322
		c-0.197,0.09-0.511,0.189-0.703,0.096c0.016-0.313-0.127-0.068,0.13-0.25l0.021-0.027V1.467c-0.698,0.129-3.91,1.496-4.46,1.875
		c-0.128,0.088-0.112,0.035-0.175,0.182c-0.133,0.313,0.245,0.371-0.184,0.473c-0.461,0.107-0.076-0.398-0.73-0.039
		c-0.303,0.168-0.502,0.316-0.762,0.438c-0.145,0.199,0.201,0.156-0.129,0.178l-0.202,0.059c-0.207,0.135-0.238,0.166-0.442,0.301
		c-0.172,0.113-0.256,0.191-0.447,0.293c-0.118,0.262,0.088,0.1-0.256,0.188c-0.225,0.168-0.292,0.184-0.467,0.387
		c-0.293,0.492-0.152,0.025-0.126,0.467c-0.563,0.387-0.032-0.01-0.143,0.377c-0.351-0.012-0.185,0.123-0.461-0.273l-0.3,0.234
		l-0.031,0.223l-0.191,0.035l-0.256,0.076c-0.136,0.285-0.036,0.164-0.313,0.293l-0.337,0.285c-0.107,0.27,0.077,0.104-0.222,0.199
		l-0.08,0.078l-0.2,0.232c0.266,0.43,0.076-0.154,0.297,0.387l-0.392,0.223c-0.081,0.348,0.069,0.117-0.171,0.281l-0.283,0.045
		l-0.371-0.148l-0.03,0.123c-0.089,0.283,0.069,0.117-0.202,0.221l-0.01,0.053l0.109,0.264L70.497,9.52l-0.035-0.018l-0.008,0.477
		c-0.15-0.084-0.047-0.023-0.158-0.098l-0.132-0.1l0.003,0.344c0.141,0.074,0.276,0.072,0.203,0.428
		c-0.03,0.146-0.196,0.309-0.271,0.398c-0.153,0.404-0.062,0.234-0.301,0.287c-0.175-0.416,0.078-0.725-0.331-0.658l0.035,0.051
		l0.041,0.359c-0.42,0.215-0.074-0.154-0.007,0.063c0.104,0.336,0.163,0.154-0.025,0.346c-0.214-0.098-0.028,0.025-0.177-0.162
		l-0.137-0.203c-0.051,0.26,0.055,0.133-0.177,0.199c-0.121,0.447,0.036,0.105-0.224,0.236l-0.16,0.256
		c0.102,0.107-0.229,0.105,0.167,0.084c0.14-0.176,0.146-0.209,0.376-0.227c-0.038,0.533-0.184-0.102-0.157,0.74l-0.263,0.051
		c-0.45-0.049-0.107-0.193-0.472-0.244l-0.562,0.877c-0.15,0.23-0.342,0.557-0.516,0.779c-0.066,0.342,0.074,0.121-0.164,0.311
		l-0.162,0.215c0.064,0.262,0.029,0.236,0.131,0.41l-0.258-0.008c0.391,0.158,0.13-0.082,0.281,0.295l-0.306,0.029
		c-0.052,0.328,0.062,0.217-0.42,0.205c0.135,0.326,0.144,0.373-0.129,0.617c-0.563,0.506-0.657,1.404-1.007,1.801
		c0.174,0.289-0.168,0.1,0.213,0.287c0.056,0.424,0.049,0.094-0.119,0.225c-0.061,0.268-0.115,0.096-0.367,0.254
		c0.014,0.73,0.15,0.195,0.158,0.643c0.012,0.617-0.918,1.207-1.249,2.76c-0.35,1.639,0.086,0.338-0.065,1.1l0.031,0.416
		l-0.345-0.039c-0.015,0.699-0.229,0.979-0.144,1.908l-0.085-0.021l-0.095,0.656c0.191,0.055,0.444-0.09,0.288,0.514l-0.104,0.162
		c-0.232,0.334-0.297-0.016-0.328,0.678l0.359-0.057c-0.104,0.363-0.063,0.334-0.355,0.498c-0.038,0.4-0.082,0.906,0.012,1.029
		l0.246,0.678l0.033,0.223l-0.289,0.057c0.047,0.219,0.096,0.25,0.217,0.414l-0.215,0.078c0.315,0.271,0.213,0.197,0.27,0.369
		c-0.125,0.174-0.046,0.066-0.15,0.195l-0.12,0.135l0.165-0.055l0.131,0.107c-0.084,0.172,0.14,0.135-0.197,0.123l-0.07-0.072
		c0.168,0.133-0.248,0.143,0.277,0.102l0.038,0.422l-0.028,0.205l-0.326-0.023l0.086,0.752l0.229,0.131l0.105-0.695
		c0.244,0.137,0.104-0.232,0.246,0.84l-0.033,0.072c0.184,0.193,0.201,0.504,0.208,0.771c-0.071,0.01-0.261,0.025-0.318,0.047
		c-0.29,0.117-0.004-0.055-0.21,0.172c0.313-0.023,0.302-0.09,0.368,0.213l-0.069,0.771c-0.133,0.434-0.035,0.248-0.016,0.787
		l0.344-0.125c-0.074,0.648-0.066-0.033-0.165,0.639c0.302-0.412-0.218-0.078,0.213-0.186c0.593-0.148,0.064-0.033,0.242,0.131
		c-0.202,0.268,0.15,0.107-0.384,0.191c0.048,0.381,0.315,1.484,0.429,1.748l0.323,0.072l0.301,0.051l0.045,0.467l-0.024,0.309
		c-0.352,0.1-0.071,0.045-0.155-0.064c-0.172,0.098-0.168-0.182-0.072,0.311l0.083,0.313l0.146,0.07l0.039,0.301l0.083,0.496
		l0.389,0.057c0.138,0.277,0.041,0.145,0.224,0.371l-0.098,0.24c-0.053,0.178-0.036-0.016-0.047,0.305l0.113,0.209l0.16,0.039
		l0.055,0.285l0.071,0.256l0.21,0.029l0.008,0.297c0.146,0.395,0.098,0.154,0.211,0.389c0.053,0.107,0.111,0.27,0.155,0.418
		c0.278,0.125,0.106-0.053,0.202,0.26c0.074,0.104,0.562,0.992,0.647,1.191c0.24,0.133,0.079-0.094,0.246,0.293
		c0.104,0.295,0.177,0.289,0.329,0.561l0.157,0.055l0.026,0.219c0.146,0.152,0.479,0.566,0.53,0.809l0.316-0.168l0.177,0.25
		c-0.013,0.027-0.021,0.066-0.028,0.082c-0.007,0.018-0.028,0.064-0.035,0.082c-0.009,0.018-0.077,0.127-0.097,0.152
		c0.773,0.709,0.176,1.158,1.783,2.219c0.289,0.191,0.385,0.369,0.621,0.623c0.457,0.488,0.844,0.664,1.397,1.191l1.416,1.146
		l0.347-0.043l0.012,0.283l0.199,0.217c0.494,0.031,0.209,0.004,0.411,0.223c0.116,0.125,0.187,0.205,0.348,0.318
		c0.243,0.168,0.507,0.314,0.723,0.479l0.26,0.014l0.05-0.391l0.211,0.133c0.421,0.078,0.231,0.033,0.402,0.166
		c-0.199,0.35,0.023,0.086-0.313,0.178c-0.076,0.021-0.227-0.193-0.227,0.107c0.401,0.156,0.567,0.582,1.267,0.742
		c0.309-0.232,0.291-0.16,0.366,0.186c0.157,0.199,0.173,0.123,0.447,0.262c0.135,0.068,0.316,0.172,0.415,0.246l0.272,0.041
		l0.058,0.158l0.31,0.1c0.323,0.059,0.138-0.09,0.278,0.176c1.006,0.047,1.367,0.695,2.278,0.85
		c0.712,0.121,0.239,0.076,1.094,0.338c0.416,0.127,0.8,0.414,1.347,0.336c0.139-0.051,0.256-0.104,0.424-0.105
		c0.523-0.006,0.196-0.029,0.32,0.096l0.266,0.018l-0.049,0.322c0.268-0.021,0.111-0.076,0.378,0.02
		c0.165,0.059,0.065,0.051,0.151,0.16c1.137-0.078,1.5,0.168,1.724,0.223c0.177,0.043,0.196,0.021,0.353,0.037l2.056,0.178
		c0.437,0.096,0.996,0.119,1.499,0.066L91.84,58c0.017-0.016,0.047-0.057,0.057-0.037l0.186-0.086
		c0.018-0.01,0.045-0.018,0.063-0.027l0.187-0.145c0.018-0.014,0.041-0.045,0.063-0.064c0.631,0.531-0.004,0.393,0.95,0.463
		c0.439,0.049,1.277-0.057,1.819-0.025l-0.081-0.338l0.456,0.248h0.196l0.036-0.299c0.282-0.094,0.131-0.111,0.4-0.146l0.021,0.277
		l0.51-0.045l0.096-0.275c0.125,0.113,0.038-0.068,0.179,0.232c0.43,0.035,1.166-0.178,1.674-0.27l0.293-0.014l0.433-0.578
		c0.017,0.025,0.041,0.057,0.052,0.07l0.568,0.16l0.346-0.182l0.007-0.281c0.576,0.109-0.078,0.115,0.563,0.176l0.126-0.047
		c0-0.176,0.053-0.15-0.093-0.143l-0.22-0.092c0.049-0.227-0.029-0.129,0.169-0.246l0.457-0.004l-0.064,0.203l0.023,0.156
		l0.468-0.09l0.324-0.199l0.568-0.125c0.141-0.244-0.109-0.096,0.286-0.168l0.377-0.105l-0.083-0.223
		c-0.047-0.277-0.061-0.158,0.071-0.264c0.159-0.074-0.268-0.184,0.344-0.063l0.001,0.383l0.369-0.121l0.05-0.162l0.236-0.018
		l0.409-0.201l0.015-0.332l0.095-0.32c0.228,0.074,0.083,0.043,0.221,0.158c0.075,0.064-0.016,0.049,0.193,0.148
		c-0.001-0.035-0.011-0.084-0.009-0.105l0.073-0.207c0.234,0.051,0.127-0.027,0.234,0.197l0.212-0.025
		c-0.045-0.363,0.012,0.02-0.072-0.252c-0.018-0.057-0.025-0.004-0.044-0.174c0.281,0.023,0.122-0.119,0.33,0.211l0.089-0.098
		c0.341-0.283-0.315,0.146,0.087-0.064c0.008-0.004,0.034-0.014,0.042-0.016c0.213-0.078,0.335,0.121,0.155-0.359
		c0.235-0.355,0.159-0.102,0.323-0.242c0.144-0.121-0.129-0.115,0.355-0.242l-0.08,0.42l0.275-0.02l0.219-0.205
		c0.088-0.045,0.253-0.098,0.353-0.213c0.139-0.16,0.118-0.049,0.13-0.336c-0.095-0.135-0.127,0.061-0.069-0.188
		c0.032-0.143-0.14-0.084,0.188-0.119l0.15-0.055c0.068-0.305-0.076-0.145,0.183-0.254c0.363-0.125,0.212-0.156,0.575-0.34
		c0.177-0.352,0.013-0.109,0.229-0.213l0.131-0.084l0.216-0.227l0.343-0.086c0.116-0.281-0.06-0.098,0.214-0.234
		c0.177-0.197,0.521-0.469,0.672-0.594l0.224-0.225l-0.003-0.086l0.087,0.027l0.093-0.205c0.163,0.064,0.15-0.139,0.128,0.141
		c0.115,0.113,0.078,0.084,0.285,0.137l-0.03-0.037l0.281-0.213l0.052-0.055l-0.019-0.357l0.266,0.137l0.28-0.25
		c-0.111-0.105,0.23-0.17-0.275-0.074c-0.223-0.07-0.097,0.07-0.189-0.117c0.055-0.201-0.015-0.119,0.163-0.203l0.625,0.123
		l0.619-0.756l0.205-0.238l0.099-0.031c0.079-0.293-0.063-0.141,0.208-0.252l0.096-0.029l0.018-0.209L114.133,48
		c0.093-0.121,0.208-0.229,0.304-0.361c0.19-0.262,0.167-0.125,0.154-0.455c-0.014-0.021-0.04-0.049-0.048-0.063
		s-0.035-0.047-0.043-0.063c-0.207-0.463,0.026-0.275,0.107-0.375l0.135,0.24c0.212,0.279-0.213,0.047,0.138,0.076l0.174-0.137
		c0.005-0.02,0.024-0.021,0.037-0.033l0.031-0.221l0.157-0.049c0.055-0.082,0.178-0.236,0.236-0.332
		c0.162-0.268,0.089-0.129,0.121-0.289l-0.035-0.131c-0.278,0.105-0.33,0.199-0.368-0.139c0.059,0,0.288-0.07,0.332-0.244
		c0.11-0.379,0.322-0.744,0.67-0.873c0.094,0.133,0.03,0.002,0.104,0.205c0.005,0.014,0.038,0.193,0.05,0.238l0.068-0.318
		c0.088-0.365,0.025-0.025,0.279-0.295c0.212-0.227,0.212-0.342,0.236-0.469c-0.131-0.26-0.17-0.244-0.271-0.498
		c0.09-0.15,0.009-0.059,0.12-0.184c0.106-0.119,0.063-0.047,0.138-0.084c0.157-0.414-0.014-0.188,0.232-0.279
		c0.102,0.094,0.099-0.18,0.103,0.258c-0.05,0.236-0.074,0.109,0.114,0.154c0.214-0.523,0.664-1.115,0.768-1.637l-0.223-0.014
		c-0.206,0.111,0.073,0.082-0.349,0.078c0.188-0.414-0.034-0.141,0.272-0.359c0.548-0.17,0.406,0.109,0.667-0.314
		c0.097-0.158,0.232-0.543,0.267-0.748l-0.083-0.172c-0.177,0.127,0.171,0.102-0.311,0.117l0.178-0.396l0.156-0.016l0.266,0.156
		l-0.006-0.299l0.036-0.379l-0.191-0.045l0.025-0.158l-0.116-0.467c0.152-0.23-0.204-0.191,0.212-0.191l0.027-0.158l0.354-0.404
		c-0.025-0.125-0.031,0.035-0.021-0.141c0.009-0.143,0.032-0.129,0.057-0.18c0.314,0.01,0.092-0.033,0.174,0.16l0.177-0.016
		l-0.063-0.252l0.195-0.094l0.009-0.242l0.06,0.018c0.105-0.771-0.1-0.436-0.169-0.678c-0.016-0.055-0.061-0.051-0.091-0.074
		l0.443,0.02l0.058-0.277l-0.477-0.021l0.063-0.188c0.042-0.313-0.059-0.164,0.173-0.453c0.181-0.225,0.19-0.17,0.351-0.217
		c-0.021-0.023-0.056-0.049-0.071-0.068c-0.479-0.645,0.015,0.318-0.131-0.201c-0.086-0.309-0.033-0.018,0.066-0.209
		c0.183,0.104,0.06,0.025,0.165,0.148c0.016,0.018,0.036,0.055,0.049,0.07l0.097,0.154c0.057-0.781,0.357-1.348,0.219-2.186
		c0.003-0.215,0.114-0.01-0.051-0.154c-0.266,0.084-0.139,0.221-0.416,0.055l0.243-0.18l-0.013-0.18l0.307,0.01l0.102,0.043
		c-0.204-0.277,0.091,0.014-0.204-0.254c-0.135-0.121-0.037-0.031-0.184-0.102c0.269-0.193,0.116,0.018,0.246-0.227l-0.368-0.068
		c-0.24-0.723-0.237-0.01-0.406-0.672c0.509-0.08,0.309-0.08,0.499,0.289l0.023-0.828c0.096-0.297-0.184-0.123,0.296-0.219
		l0.296-0.109l-0.015-0.529l-0.23-0.066l0.036-0.428c-0.127-0.137-0.118,0.215-0.111-0.225l0.236-0.029
		c-0.021-0.127-0.028-0.307-0.143-0.328l-0.206,0.051c-0.65,0.156,0.563-0.047-0.214,0.053c0.21-1.035,0.291-0.051-0.033-1.09
		l0.148-0.322c0.199,0.092,0.166,0.279,0.188,0.238l0.21-0.037l0.102-0.07c-0.378-0.168-0.285-0.057-0.332-0.527
		c0.177-0.102,0.053-0.029,0.209-0.025c0.488,0.012-0.278,0.139,0.107,0.025l-0.241-0.676l-0.419,0.076
		c-0.015-0.027-0.034-0.061-0.042-0.084c-0.007-0.023-0.312-0.943,0.134-1.053l0.07,0.008c-0.302-0.27-0.104,0.01-0.278-0.307
		l-0.076-0.334c-0.026-0.32-0.121-0.445-0.161-0.705c-0.064-0.424-0.06-0.385-0.171-0.813l-0.085-0.416
		c0.575-0.084,0.282-0.098,0.56,0.109l-0.168-0.34l-0.257,0.102c-0.109-0.504-0.195-0.211-0.313-0.699
		c-0.229-0.223-0.247-0.574-0.303-0.906l0.612-0.045l0.002-0.344l-0.096,0.127c-0.013,0.014-0.031,0.043-0.046,0.057
		c-0.251,0.229-0.248,0.055-0.304,0.02c0.056-0.205-0.026-0.053,0.095-0.189l0.089-0.498l0.014-0.398l-0.595,0.275
		c-0.156-0.354-0.286-0.277-0.356-0.523c-0.004-0.012-0.005-0.168-0.008-0.189c-0.039-0.301-0.192-0.494-0.237-0.848
		c-0.34-0.441,0.07-0.436-0.439-0.711c0.039-0.184,0.038-0.166,0.127-0.33c-0.485,0.168-0.129,0.049-0.264-0.002l-0.021-0.32
		c-0.107-0.156-0.199-0.264-0.282-0.439l-0.158-0.289l-0.093-0.328c-0.188-0.105-0.22-0.227-0.308-0.383
		c-0.104-0.184-0.135-0.273-0.157-0.539l-0.135-0.092c-0.273-0.211-0.043,0.01-0.21-0.291c-0.085-0.152-0.095-0.158-0.169-0.307
		c0.261-0.01,0.257-0.006,0.428,0.09l-0.015-0.295c0.024-0.02,0.076-0.092,0.086-0.104c0.008-0.012,0.039-0.031,0.046-0.068
		c0.008-0.039,0.03-0.051,0.048-0.074c-0.072-0.029-0.113-0.039-0.203-0.088l-0.42-0.24l0.145-0.201l-0.5-0.863
		c-0.265,0.107-0.062,0.434,0.081,0.594c-0.086,0.037-0.327,0.039-0.506,0.029l0.015-0.338c0.001-0.127-0.023-0.307-0.027-0.463
		l-0.084-0.098c-0.313-0.031-0.15-0.051-0.196,0.098l0.115,0.377c-0.386-0.256-0.472-0.467-0.673-0.871l-0.246-0.178
		c0.051-0.293-0.027-0.096,0.082-0.309c-0.208-0.24-0.226-0.127-0.488-0.27l0.07-0.109l-0.342-0.174
		c-0.221-0.17-0.191-0.133-0.344-0.385c0.217-0.188,0.004-0.014,0.249-0.107l0.217-0.096c-0.133-0.051-0.113,0.033-0.245-0.137
		c-0.014-0.018-0.026-0.045-0.037-0.064l-0.19-0.609c-0.193-0.152-0.51-0.553-0.653-0.816l-0.594,0.174
		c0.201,0.197-0.093-0.004,0.187,0.117c0.372,0.162,0.33-0.029,0.354,0.43c-0.377,0.021-0.247,0.092-0.514-0.184
		c-0.192-0.197-0.195-0.285-0.212-0.459l0.449-0.115l-0.007-0.02l-0.188-0.025l-0.013-0.201c-0.118-0.043-0.139,0.033-0.08-0.086
		c-0.259-0.109-0.329-0.203-0.51-0.352c-0.07-0.057-0.191-0.143-0.223-0.17c-0.136-0.119-0.057-0.041-0.161-0.178l-0.217-0.154
		c-0.461-0.203-0.036-0.016-0.313-0.217c-0.09-0.066-0.126-0.061-0.271-0.176c0.064-0.117,0.116-0.236,0.168-0.408
		c-0.354-0.084-0.308,0-0.427-0.381c-0.25,0.066-0.123-0.012-0.28,0.098c-0.112,0.398,0.037,0.242-0.384,0.357
		c0.069-0.168,0.069-0.225,0.152-0.363c-0.44-0.021-0.446-0.025-0.56-0.365l-0.266,0.057l-0.025-0.213
		c-0.249-0.307-0.082,0.045-0.375-0.299c-0.212-0.242-0.586-0.359-0.91-0.57c-0.239-0.104-0.712-0.342-0.825-0.625
		c-0.33-0.076-0.313-0.131-0.616-0.344c-0.064-0.045-0.243-0.156-0.282-0.186c-0.199-0.146-0.142-0.092-0.266-0.266l-0.465-0.117
		c-0.008,0.004-0.202,0.121-0.206,0.123c-0.014,0.01-0.05,0.07-0.061,0.051c-0.011-0.018-0.039,0.035-0.06,0.053
		c0.247,0.018,0.562,0.176,0.753,0.385c-0.402,0.043-1.165-0.398-1.604-0.615c-0.271,0.137-0.28,0.227-0.713,0.348
		c0.105-0.424-0.065-0.043,0.197-0.326l0.116-0.088c0.008-0.027,0.036-0.023,0.049-0.039l-0.768-0.336
		c-0.022-0.006-0.054-0.02-0.066-0.025l-0.539-0.223l-0.349-0.125l-0.019-0.268l0.595,0.133l0.089-0.143l-0.103-0.039l-0.198-0.125
		l0.006-0.395c-0.697-0.086-1.607-0.617-2.346-0.68c-0.277,0.004-0.302,0.082-0.401-0.162c-0.782-0.113-2.449-0.658-3.135-0.545
		c-0.149,0.023-0.285,0.021-0.374,0.051c-0.438,0.143-0.184,0.102-0.309,0.23l0.429,0.117l-0.05,0.293
		c-0.409-0.053-0.027-0.023-0.403-0.139c-0.021,0.504-0.032,0.26-0.135,0.379l-0.073-0.111c-0.003-0.016-0.01-0.045-0.012-0.063
		l0.071-0.404c0.132-0.498,0.111,0.006,0.206-0.5c-1.663-0.361-2.818,0.082-3.003,0.029C92.127,0.104,92.628,0.021,92.08,0
		L89.468,0.059L89.468,0.059z"/>
	<path fill="#414142" d="M91.497,74.627c0.125-0.41,0.561-0.643,0.971-0.516s0.641,0.561,0.515,0.971
		c-0.538,1.752-0.97,3.551-1.333,5.346c-0.084,0.42-0.492,0.693-0.913,0.609s-0.694-0.494-0.608-0.914
		C90.5,78.271,90.942,76.434,91.497,74.627L91.497,74.627z M159.169,87.842c3.326-3.48,4.641-6.697,4.758-11.566
		c0.031-1.336-0.217-6.486-2.205-6.563c-2.238-0.088-2.559,8.484-2.611,10.15C159.025,82.525,159.06,85.182,159.169,87.842
		L159.169,87.842z M159.259,89.955c0.049,1.189,0.096,2.379,0.113,3.574c1.574-1.922,3.275-4.02,5.17-5.637
		c2.018-1.719,3.947-2.568,6.418-2.568c2.18,0,4.732,0.623,4.732,3.283c0,2.385-3.453,3.48-5.383,3.48
		c-0.846,0-1.715-0.096-2.551-0.221c1.1,1.785,2.375,3.188,4.631,3.27c3.84,0.141,7.83-3.104,10.252-5.844
		c0.285-0.32,0.775-0.352,1.096-0.066c0.322,0.283,0.352,0.775,0.066,1.096c-2.754,3.117-7.084,6.529-11.469,6.369
		c-3.457-0.127-5.326-2.689-6.766-5.51c-0.275-0.541,0.021-1.271,0.844-1.135c1.309,0.219,2.559,0.482,3.896,0.482
		c0.803,0,3.824-0.572,3.824-1.922c0-1.602-1.979-1.725-3.174-1.725c-2.059,0-3.686,0.725-5.406,2.191
		c-2.305,1.969-4.443,4.779-6.354,7.129c-0.461,0.566-1.393,0.238-1.379-0.5c0.025-1.5-0.012-3.012-0.07-4.525
		c-2.35,1.83-5.355,3.303-8.408,2.826c-1.268,1.559-3.184,2.59-5.215,2.59c-2.903,0-5.304-1.85-5.995-4.662
		c-2.129,1.596-5.248,2.463-7.895,2.047c-1.275,1.586-3.248,2.654-5.313,2.572c-2.706-0.109-4.974-1.455-5.8-4.098
		c-2.907,2.58-6.646,4.119-10.553,4.119c-2.982,0-6.174-1.162-7.306-4.143c-2.409,2.195-5.266,4.26-8.593,4.631
		c-4.405,0.494-4.423-4.541-4.215-7.592c-2.014,3.605-4.756,7.857-9.399,7.857c-4.572,0-4.667-3.436-4.757-6.705
		c-0.045-1.648,0.06-4.379-2.215-4.379c-3.597,0-7.696,7.959-8.824,10.23c-0.147,0.297-0.454,0.5-0.801,0.459
		c-0.427-0.047-0.735-0.436-0.686-0.861c0.247-2.119,0.626-4.287,0.626-6.42c0-1.688-0.252-3.924-2.43-3.924
		c-2.244,0-4.753,3.662-5.959,5.258c-2.322,3.076-4.689,6.213-7.74,6.213c-2.318,0-3.484-1.414-3.823-3.803
		c-0.294-2.072,0.087-4.938,0.874-8.24c0.1-0.42,0.52-0.678,0.938-0.58c0.418,0.1,0.678,0.523,0.579,0.939
		c-0.747,3.131-1.113,5.809-0.85,7.668c0.219,1.543,0.917,2.457,2.282,2.457c2.277,0,4.408-2.822,6.498-5.592
		c1.648-2.184,4.205-5.881,7.201-5.881c3.371,0,3.988,2.748,3.988,5.484c0,0.807-0.061,1.672-0.149,2.557
		c1.583-2.678,4.729-7.525,8.275-7.525c3.703,0,3.691,3.119,3.768,5.898c0.069,2.527,0.143,5.188,3.204,5.188
		c3.237,0,5.538-2.746,7.565-6.219c0.87-1.488,1.651-3.033,2.437-4.568c0.195-0.381,0.664-0.533,1.045-0.338
		c0.308,0.156,0.466,0.492,0.414,0.816c-0.27,1.65-0.453,3.133-0.533,4.426c-0.114,1.863-0.322,5.949,2.516,5.629
		c3.267-0.365,6.1-2.68,8.4-4.869c-0.119-3.426,2.757-6.447,6.177-6.447c2.33,0,4.104,1.361,4.929,3.506
		c0.152,0.398-0.047,0.85-0.447,1.002s-0.849-0.047-1.002-0.447c-0.592-1.543-1.799-2.5-3.479-2.5c-2.485,0-4.682,2.25-4.628,4.74
		c0.082,3.252,3.309,4.52,6.12,4.516c3.941-0.006,7.476-1.65,10.249-4.412c-0.091-2.93,2.148-5.963,5.175-6.201
		c0.429-0.033,0.805,0.287,0.838,0.715c0.033,0.426-0.284,0.805-0.716,0.838c-2.105,0.166-3.741,2.391-3.741,4.406
		c0,2.846,1.817,4.525,4.608,4.637c1.277,0.053,2.582-0.504,3.586-1.49c-2.184-0.939-3.197-2.875-3.197-5.199
		c0-1.906,0.906-4.307,3.189-4.133c2.553,0.193,3.438,3.25,3.322,5.424c-0.057,1.064-0.318,2.047-0.73,2.916
		c2.342,0.139,5.125-0.803,6.797-2.475c0.16-2.826,2.322-5.17,5.105-5.629c0.424-0.068,0.824,0.217,0.893,0.643
		c0.068,0.42-0.217,0.822-0.643,0.893c-2.139,0.352-3.807,2.232-3.807,4.414c0,2.656,1.955,4.674,4.626,4.674
		c1.281,0,2.574-0.555,3.566-1.525c-2.047-0.955-3.195-2.951-3.195-5.201c0-1.906,0.906-4.307,3.189-4.133
		c2.557,0.193,3.436,3.254,3.322,5.424c-0.057,1.078-0.32,2.064-0.736,2.934c2.795,0.084,5.359-1.533,7.396-3.299
		c-0.137-3.215-0.219-6.396-0.105-9.615c0.098-2.787,0.344-11.609,4.211-11.459c3.324,0.131,3.762,5.732,3.703,8.154
		C165.335,82.297,163.48,85.859,159.259,89.955L159.259,89.955z M148.675,92.234c0.443-0.779,0.729-1.695,0.783-2.717
		c0.061-1.168-0.301-3.672-1.885-3.791c-1.242-0.094-1.516,1.709-1.516,2.58C146.058,90.092,146.992,91.611,148.675,92.234
		L148.675,92.234z M129.559,92.217c0.439-0.777,0.723-1.689,0.775-2.699c0.064-1.207-0.313-3.672-1.885-3.791
		c-1.244-0.094-1.514,1.705-1.514,2.58C126.936,90.186,127.725,91.6,129.559,92.217L129.559,92.217z M25.442,80.484
		c0.4-0.152,0.85,0.049,1.002,0.447s-0.047,0.848-0.447,1.002c-2.156,0.83-4.182,1.479-6.075,1.959
		c-0.245,2.227-0.362,4.285-0.261,6.053c0.146,2.555,0.721,5.617,3.796,5.893c2.898,0.262,5.591-1.789,7.683-5.098
		c2.343-3.703,3.619-8.41,4.084-12.764c-2.994-0.77-6.303-2.775-6.414-6.215c-0.061-1.891,1.409-3.262,3.26-3.32
		c1.898-0.061,3.315,0.973,4.104,2.762c0.69,1.566,0.877,3.83,0.723,5.527c4.014,0.584,8.902-0.609,10.525-4.762
		c0.155-0.398,0.605-0.596,1.004-0.441c0.385,0.148,0.602,0.613,0.443,1.008c-0.597,1.492-1.119,2.967-1.594,4.408
		c-0.472,1.428-0.879,2.807-1.209,4.133c-0.104,0.416-0.527,0.67-0.945,0.566c-0.418-0.105-0.669-0.529-0.566-0.945
		c0.358-1.432,0.78-2.861,1.247-4.264c-2.554,1.791-6.004,2.287-9.044,1.848c-0.502,4.543-1.855,9.418-4.301,13.287
		c-2.396,3.789-5.57,6.061-9.103,5.824c-4.022-0.268-5.05-3.975-5.245-7.363c-0.098-1.713-0.003-3.666,0.21-5.766
		c-3.243,0.686-6.065,0.838-8.455,0.516c-8.018-1.078-10.665-7.275-9.659-14.756c0.869-6.455,5.779-12.395,12.784-12.145
		c9.868,0.355,9.287,11.043,8.086,18.176c-0.356,2.117-0.693,4.201-0.952,6.184C21.788,81.789,23.561,81.207,25.442,80.484
		L25.442,80.484z M10.07,83.238c2.347,0.316,5.16,0.137,8.433-0.6c0.271-2.184,0.642-4.496,1.037-6.84
		c1.016-6.037,2.015-16.059-6.606-16.365C6.741,59.211,2.506,64.572,1.745,70.229C0.856,76.842,2.925,82.277,10.07,83.238
		L10.07,83.238z M35.355,76.4c0.091-1.813-0.096-3.408-0.607-4.57c-0.507-1.15-1.392-1.873-2.631-1.836
		c-0.991,0.031-1.787,0.701-1.755,1.719C30.445,74.273,33.167,75.787,35.355,76.4L35.355,76.4z"/>
</g>
</svg>
