<?xml version="1.0" encoding="utf-8"?>
<!-- Generator: Adobe Illustrator 16.0.0, SVG Export Plug-In . SVG Version: 6.00 Build 0)  -->
<!DOCTYPE svg PUBLIC "-//W3C//DTD SVG 1.0//EN" "http://www.w3.org/TR/2001/REC-SVG-20010904/DTD/svg10.dtd">
<svg version="1.0" id="Layer_1" xmlns="http://www.w3.org/2000/svg" xmlns:xlink="http://www.w3.org/1999/xlink" x="0px" y="0px"
	 width="190px" height="40.828px" viewBox="0 0 190 40.828" enable-background="new 0 0 190 40.828" xml:space="preserve">
<g>
	<path fill="#C8C8C8" d="M94.479,17.301c0.13-0.424,0.58-0.662,1.003-0.531c0.424,0.13,0.662,0.579,0.532,1.003
		c-0.556,1.809-1.001,3.665-1.376,5.52c-0.088,0.434-0.51,0.716-0.943,0.629c-0.435-0.087-0.717-0.51-0.629-0.943
		C93.452,21.065,93.906,19.167,94.479,17.301L94.479,17.301z M164.359,30.947c3.436-3.594,4.792-6.915,4.913-11.943
		c0.033-1.379-0.224-6.697-2.276-6.777c-2.312-0.09-2.642,8.762-2.697,10.482C164.21,25.458,164.248,28.2,164.359,30.947
		L164.359,30.947z M164.452,33.13c0.051,1.228,0.099,2.457,0.118,3.691c1.625-1.984,3.381-4.15,5.338-5.82
		c2.083-1.776,4.076-2.653,6.627-2.653c2.252,0,4.888,0.643,4.888,3.39c0,2.463-3.565,3.596-5.56,3.596
		c-0.874,0-1.77-0.1-2.634-0.229c1.136,1.843,2.452,3.293,4.781,3.378c3.967,0.145,8.087-3.207,10.587-6.035
		c0.294-0.332,0.801-0.362,1.132-0.069c0.332,0.294,0.362,0.801,0.069,1.132c-2.844,3.218-7.316,6.741-11.845,6.576
		c-3.568-0.13-5.499-2.775-6.985-5.69c-0.283-0.557,0.022-1.312,0.871-1.169c1.353,0.225,2.642,0.498,4.023,0.498
		c0.83,0,3.95-0.592,3.95-1.986c0-1.653-2.044-1.779-3.278-1.779c-2.125,0-3.807,0.747-5.583,2.263
		c-2.38,2.032-4.587,4.935-6.561,7.362c-0.475,0.583-1.438,0.245-1.424-0.519c0.025-1.549-0.013-3.108-0.071-4.672
		c-2.427,1.89-5.531,3.409-8.683,2.918c-1.311,1.609-3.289,2.674-5.386,2.674c-2.999,0-5.477-1.909-6.191-4.813
		c-2.199,1.647-5.419,2.543-8.152,2.112c-1.316,1.64-3.354,2.742-5.485,2.656c-2.794-0.112-5.136-1.502-5.988-4.23
		c-3.003,2.664-6.863,4.254-10.896,4.254c-3.08,0-6.376-1.2-7.544-4.277c-2.488,2.266-5.438,4.396-8.874,4.782
		c-4.549,0.511-4.567-4.69-4.353-7.84c-2.079,3.722-4.911,8.112-9.706,8.112c-4.721,0-4.819-3.548-4.912-6.923
		c-0.046-1.703,0.062-4.521-2.287-4.521c-3.714,0-7.947,8.218-9.112,10.563c-0.152,0.308-0.468,0.516-0.827,0.476
		c-0.441-0.051-0.759-0.449-0.708-0.89c0.255-2.19,0.646-4.428,0.646-6.631c0-1.743-0.26-4.052-2.509-4.052
		c-2.316,0-4.907,3.781-6.153,5.431c-2.397,3.176-4.842,6.414-7.993,6.414c-2.394,0-3.598-1.458-3.948-3.926
		c-0.303-2.14,0.09-5.099,0.903-8.51c0.103-0.433,0.536-0.7,0.968-0.598c0.431,0.102,0.7,0.54,0.598,0.969
		c-0.771,3.234-1.15,5.998-0.877,7.919c0.226,1.593,0.947,2.535,2.356,2.535c2.353,0,4.552-2.914,6.71-5.771
		c1.703-2.256,4.342-6.072,7.436-6.072c3.482,0,4.12,2.836,4.12,5.661c0,0.834-0.063,1.728-0.155,2.641
		c1.635-2.767,4.883-7.77,8.545-7.77c3.824,0,3.812,3.219,3.891,6.088c0.072,2.611,0.147,5.357,3.308,5.357
		c3.343,0,5.719-2.834,7.813-6.42c0.898-1.538,1.705-3.134,2.517-4.719c0.202-0.394,0.685-0.55,1.079-0.349
		c0.318,0.162,0.481,0.508,0.427,0.842c-0.277,1.707-0.468,3.236-0.55,4.57c-0.118,1.925-0.333,6.144,2.598,5.814
		c3.373-0.378,6.298-2.768,8.674-5.029c-0.123-3.537,2.847-6.655,6.378-6.655c2.406,0,4.239,1.403,5.09,3.619
		c0.158,0.411-0.048,0.876-0.462,1.034c-0.413,0.158-0.876-0.049-1.035-0.462c-0.61-1.594-1.856-2.582-3.593-2.582
		c-2.565,0-4.834,2.324-4.778,4.896c0.085,3.357,3.417,4.666,6.32,4.661c4.069-0.006,7.719-1.703,10.582-4.555
		c-0.094-3.027,2.219-6.158,5.345-6.404c0.442-0.034,0.83,0.296,0.864,0.739c0.034,0.439-0.293,0.83-0.738,0.864
		c-2.174,0.172-3.864,2.47-3.864,4.549c0,2.94,1.878,4.674,4.759,4.79c1.319,0.053,2.667-0.521,3.703-1.539
		c-2.255-0.972-3.302-2.969-3.302-5.37c0-1.967,0.936-4.446,3.294-4.268c2.635,0.2,3.549,3.356,3.43,5.601
		c-0.058,1.1-0.328,2.113-0.755,3.011c2.42,0.144,5.293-0.829,7.019-2.554c0.166-2.92,2.398-5.34,5.272-5.813
		c0.438-0.071,0.851,0.226,0.922,0.663c0.07,0.436-0.224,0.85-0.664,0.922c-2.208,0.364-3.93,2.307-3.93,4.558
		c0,2.744,2.019,4.829,4.777,4.829c1.323,0,2.658-0.574,3.682-1.576c-2.112-0.985-3.298-3.048-3.298-5.372
		c0-1.967,0.936-4.446,3.293-4.268c2.64,0.2,3.549,3.361,3.43,5.601c-0.059,1.114-0.331,2.132-0.76,3.031
		c2.888,0.085,5.534-1.584,7.639-3.408c-0.143-3.32-0.227-6.604-0.11-9.929c0.102-2.878,0.354-11.986,4.35-11.831
		c3.433,0.134,3.883,5.918,3.823,8.418C170.728,25.223,168.812,28.899,164.452,33.13L164.452,33.13z M153.524,35.483
		c0.458-0.805,0.752-1.751,0.808-2.805c0.063-1.206-0.312-3.792-1.946-3.916c-1.283-0.097-1.564,1.765-1.564,2.664
		C150.821,33.271,151.784,34.839,153.524,35.483L153.524,35.483z M133.783,35.466c0.453-0.805,0.745-1.746,0.8-2.787
		c0.066-1.247-0.323-3.793-1.945-3.916c-1.285-0.097-1.564,1.761-1.564,2.664C131.073,33.368,131.889,34.828,133.783,35.466
		L133.783,35.466z M26.271,23.351c0.413-0.158,0.876,0.049,1.034,0.462c0.157,0.41-0.048,0.876-0.462,1.035
		c-2.226,0.854-4.317,1.526-6.273,2.021c-0.253,2.301-0.374,4.424-0.269,6.25c0.151,2.638,0.743,5.801,3.919,6.086
		c2.993,0.27,5.772-1.848,7.933-5.265c2.419-3.825,3.736-8.685,4.216-13.181c-3.091-0.794-6.508-2.865-6.622-6.417
		c-0.063-1.951,1.455-3.366,3.365-3.427c1.961-0.063,3.424,1.004,4.238,2.852c0.713,1.618,0.905,3.953,0.746,5.706
		c4.145,0.605,9.193-0.628,10.869-4.916c0.161-0.411,0.625-0.615,1.038-0.456c0.396,0.153,0.621,0.633,0.458,1.041
		c-0.617,1.541-1.156,3.064-1.646,4.551c-0.486,1.476-0.906,2.9-1.249,4.269c-0.107,0.431-0.544,0.692-0.975,0.585
		c-0.433-0.108-0.691-0.547-0.584-0.975c0.37-1.479,0.805-2.958,1.287-4.404c-2.637,1.848-6.2,2.363-9.338,1.908
		c-0.519,4.69-1.917,9.727-4.442,13.721c-2.475,3.912-5.751,6.258-9.398,6.015c-4.154-0.277-5.215-4.104-5.416-7.604
		c-0.102-1.771-0.003-3.785,0.217-5.953c-3.35,0.706-6.264,0.863-8.731,0.532C1.905,26.672-0.829,20.271,0.21,12.547
		c0.896-6.664,5.967-12.798,13.2-12.539C23.601,0.374,23,11.41,21.76,18.775c-0.368,2.186-0.715,4.34-0.983,6.385
		C22.497,24.698,24.329,24.097,26.271,23.351L26.271,23.351z M10.397,26.194c2.423,0.326,5.329,0.141,8.708-0.62
		c0.279-2.256,0.663-4.642,1.07-7.063c1.049-6.233,2.081-16.58-6.822-16.899C6.96,1.382,2.587,6.92,1.801,12.761
		C0.883,19.588,3.02,25.203,10.397,26.194L10.397,26.194z M36.507,19.134c0.094-1.872-0.099-3.52-0.627-4.719
		c-0.523-1.188-1.437-1.937-2.716-1.896c-1.024,0.032-1.845,0.723-1.812,1.773C31.437,16.936,34.249,18.5,36.507,19.134
		L36.507,19.134z"/>
</g>
</svg>
